<?xml version="1.0" encoding="UTF-8"?>
<svg version="1.1" xmlns="http://www.w3.org/2000/svg" width="500" height="200">
<path d="M0 0 C2.11346263 5.39181344 3.81321825 10.70043106 5.17651367 16.32446289 C5.37202316 17.11417984 5.56753265 17.90389679 5.76896667 18.71754456 C6.40707059 21.30135678 7.03790297 23.8868731 7.66796875 26.47265625 C8.11188857 28.28296163 8.55600909 30.0932178 9.00032043 31.90342712 C9.92736652 35.68585274 10.85053979 39.46919883 11.77124023 43.25317383 C12.94932796 48.09273419 14.13927437 52.9292908 15.33240795 57.76516056 C16.25165298 61.49821472 17.16346345 65.23305536 18.07317543 68.96844292 C18.50879655 70.75237582 18.94696745 72.53568817 19.38777733 74.31834602 C20.00347145 76.81206423 20.60881092 79.30808408 21.21166992 81.80493164 C21.39397156 82.53395691 21.57627319 83.26298218 21.76409912 84.01409912 C22.83097704 88.49135575 23.17063183 92.43873736 23 97 C21.515 97.495 21.515 97.495 20 98 C20.103125 99.258125 20.20625 100.51625 20.3125 101.8125 C20.48828125 103.95703125 20.48828125 103.95703125 20 106 C16.60509856 108.62192752 13.13222336 109.69133901 9 110.6875 C7.989375 110.93886719 6.97875 111.19023437 5.9375 111.44921875 C3.13428246 111.97482204 0.83237731 112.33912106 -2 112 C-3.66015625 110.6796875 -3.66015625 110.6796875 -5.0625 108.875 C-5.81080078 107.92560547 -5.81080078 107.92560547 -6.57421875 106.95703125 C-8.47196882 104.35217431 -10.27380523 101.72207636 -12 99 C-12 100.98 -12 102.96 -12 105 C-13.98 105.99 -13.98 105.99 -16 107 C-15.6596875 108.6396875 -15.6596875 108.6396875 -15.3125 110.3125 C-15 114 -15 114 -16.12109375 115.625 C-21.43779604 119.51580916 -30.52101799 120.96495477 -37 120 C-40.31518985 116.70436484 -41.10486479 112.61603436 -42.14477539 108.20898438 C-42.3370723 107.427883 -42.5293692 106.64678162 -42.72749329 105.8420105 C-43.36021378 103.26143331 -43.97913518 100.67776413 -44.59765625 98.09375 C-45.03627259 96.28958156 -45.47560972 94.48558822 -45.91563416 92.6817627 C-46.83678104 88.89698951 -47.75153329 85.1107482 -48.66137695 81.32324219 C-49.82082735 76.49741067 -50.992273 71.67459843 -52.16814518 66.85274506 C-53.07685198 63.12326848 -53.98090113 59.39267556 -54.88342094 55.66169739 C-55.3133904 53.88507869 -55.7443348 52.10869563 -56.17631721 50.33256531 C-61.805201 27.14562334 -61.805201 27.14562334 -62 22 C-60 19 -60 19 -57.9375 18.0625 C-57.298125 17.711875 -56.65875 17.36125 -56 17 C-55.6278958 15.67696283 -55.29369827 14.34262065 -55 13 C-51.63388316 10.7559221 -48.50526744 9.92769477 -44.625 9.0625 C-43.965 8.88654297 -43.305 8.71058594 -42.625 8.52929688 C-40.6640625 8.09765625 -40.6640625 8.09765625 -37 8 C-33.44072131 10.740996 -31.10038028 14.05289584 -28.6875 17.8125 C-28.17574219 18.60269531 -27.66398437 19.39289063 -27.13671875 20.20703125 C-26.76160156 20.79871094 -26.38648438 21.39039062 -26 22 C-26.02320313 21.30132812 -26.04640625 20.60265625 -26.0703125 19.8828125 C-26.08835938 18.97273438 -26.10640625 18.06265625 -26.125 17.125 C-26.14820313 16.22007813 -26.17140625 15.31515625 -26.1953125 14.3828125 C-26 12 -26 12 -24 10 C-22.68 10 -21.36 10 -20 10 C-20.1546875 8.8553125 -20.1546875 8.8553125 -20.3125 7.6875 C-20 5 -20 5 -18 3.3125 C-11.98989134 0.68307746 -6.53732642 -0.2723886 0 0 Z M-14 96 C-13 98 -13 98 -13 98 Z " fill="#D9FB3D" transform="translate(128,51)"/>
<path d="M0 0 C7.31135429 6.64668572 8.36688927 15.84450033 9.515625 25.2734375 C9.70902214 26.79197327 9.70902214 26.79197327 9.90632629 28.34118652 C10.17544456 30.47525792 10.43991172 32.60992051 10.69995117 34.74511719 C11.0933586 37.95709923 11.50753425 41.16591398 11.92382812 44.375 C16.91670082 83.87263308 16.91670082 83.87263308 6.01171875 97.94140625 C-2.13884113 105.62483918 -12.57332171 106.85099765 -23.3828125 106.703125 C-30.65168621 106.13671926 -36.27821108 102.90910203 -41.08984375 97.4921875 C-45.07853698 90.86730763 -46.09632361 83.81716421 -47.01171875 76.2578125 C-47.23628754 74.52528229 -47.23628754 74.52528229 -47.46539307 72.75775146 C-47.77769979 70.32469853 -48.08322824 67.89076692 -48.38232422 65.45605469 C-48.83700575 61.76522463 -49.31516247 58.07801385 -49.796875 54.390625 C-50.09905729 52.01319849 -50.39988256 49.63559903 -50.69921875 47.2578125 C-50.83978699 46.17195862 -50.98035522 45.08610474 -51.12518311 43.96734619 C-52.66069976 31.28237914 -53.46358888 20.96617021 -46.46484375 9.9296875 C-45.78421875 9.218125 -45.78421875 9.218125 -45.08984375 8.4921875 C-44.42984375 8.4921875 -43.76984375 8.4921875 -43.08984375 8.4921875 C-42.92484375 7.7909375 -42.75984375 7.0896875 -42.58984375 6.3671875 C-39.82479996 1.06752023 -35.03536524 -1.79104142 -29.52734375 -3.8203125 C-18.62471171 -6.00083891 -9.40966029 -6.78902593 0 0 Z M-24.08984375 26.4921875 C-23.28483314 33.31139424 -22.4655851 40.12877975 -21.63623047 46.94506836 C-21.3555707 49.26595883 -21.07822012 51.58725189 -20.80419922 53.90893555 C-20.41063852 57.23857268 -20.00534973 60.56659891 -19.59765625 63.89453125 C-19.47673615 64.93931137 -19.35581604 65.98409149 -19.23123169 67.06053162 C-19.11125824 68.02145218 -18.99128479 68.98237274 -18.86767578 69.97241211 C-18.76552765 70.82290634 -18.66337952 71.67340057 -18.55813599 72.54966736 C-18.40359955 73.19069901 -18.24906311 73.83173065 -18.08984375 74.4921875 C-17.42984375 74.8221875 -16.76984375 75.1521875 -16.08984375 75.4921875 C-15.09984375 74.9971875 -15.09984375 74.9971875 -14.08984375 74.4921875 C-14.66553603 64.89857859 -15.60652164 55.40453867 -16.81933594 45.87402344 C-17.09479882 43.70313726 -17.36213903 41.53134517 -17.62890625 39.359375 C-17.80291063 37.97129457 -17.9773718 36.5832713 -18.15234375 35.1953125 C-18.30832031 33.95426758 -18.46429688 32.71322266 -18.625 31.43457031 C-18.9259667 28.5681394 -18.9259667 28.5681394 -20.08984375 26.4921875 C-21.40984375 26.4921875 -22.72984375 26.4921875 -24.08984375 26.4921875 Z " fill="#D8FA3E" transform="translate(196.08984375,47.5078125)"/>
<path d="M0 0 C5.38703922 3.96478294 8.33641018 8.36207898 9.75 14.98828125 C10.72303253 23.54792679 8.31345463 32.77223529 4 40.1875 C0.14785727 41.57855154 -3.05318074 41.01357845 -7 40.1875 C-6.21625 41.074375 -5.4325 41.96125 -4.625 42.875 C-0.03761113 48.06599267 0.54511268 53.3905146 0.453125 60.11328125 C-0.57700785 72.9866819 -5.46366351 92.08463335 -15 101.1875 C-22.55174301 105.87530854 -29.53694341 107.27473868 -38.33984375 105.33984375 C-48.50044755 102.77211511 -55.78844752 100.30104393 -61.9375 91.375 C-64.47168434 83.77244697 -64.39915301 76.81220546 -62 69.1875 C-61 67.1875 -61 67.1875 -59.0625 66.375 C-56.31667593 64.79407099 -56.11047166 63.07472632 -55 60.1875 C-51.61725734 59.05991911 -50.23221777 59.36999738 -46.8125 60.125 C-45.91144531 60.31964844 -45.01039063 60.51429687 -44.08203125 60.71484375 C-43.05142578 60.94880859 -43.05142578 60.94880859 -42 61.1875 C-42.54269531 60.76339844 -43.08539063 60.33929688 -43.64453125 59.90234375 C-49.53664075 55.0718756 -52.00693958 51.15974169 -53.875 43.6875 C-54.90336411 32.85819629 -50.76157624 17.94049896 -44.875 8.9375 C-43 7.1875 -43 7.1875 -41 7.1875 C-40.835 6.48625 -40.67 5.785 -40.5 5.0625 C-37.84579842 -0.02471969 -33.12672609 -2.83775054 -28 -5.1875 C-18.39197426 -7.18917203 -8.30942879 -5.21563817 0 0 Z M-25 26.1875 C-25.33 28.1675 -25.66 30.1475 -26 32.1875 C-23.04622502 34.55730013 -23.04622502 34.55730013 -19 34.1875 C-18.67 31.8775 -18.34 29.5675 -18 27.1875 C-20.31 26.8575 -22.62 26.5275 -25 26.1875 Z M-35 64.1875 C-35.33 66.8275 -35.66 69.4675 -36 72.1875 C-33.69 72.8475 -31.38 73.5075 -29 74.1875 C-28.67 71.2175 -28.34 68.2475 -28 65.1875 C-30.31 64.8575 -32.62 64.5275 -35 64.1875 Z " fill="#D9FB3E" transform="translate(420,59.8125)"/>
<path d="M0 0 C6.5836771 -0.25107243 12.97421678 0.11510906 19.5 0.9375 C20.19416016 1.02435059 20.88832031 1.11120117 21.60351562 1.20068359 C24.53422121 1.58967077 27.18752565 2.06250855 30 3 C31.63071014 6.26142029 31.43817932 9.89249022 31.66430664 13.48535156 C31.72297409 14.36358078 31.78164154 15.24181 31.84208679 16.14665222 C32.03566107 19.06104872 32.22299979 21.97580987 32.41015625 24.890625 C32.54292794 26.91365632 32.67602448 28.93666634 32.80943298 30.95965576 C33.08859064 35.20649608 33.36485729 39.45351124 33.63891602 43.70068359 C33.98994355 49.13942848 34.34643909 54.57779681 34.7049036 60.01605606 C34.98018177 64.19728176 35.25336973 68.37864185 35.52584648 72.56005096 C35.65657069 74.56470422 35.7877484 76.56932796 35.91938972 78.5739212 C36.10328227 81.38151264 36.28456382 84.18926053 36.46508789 86.99707031 C36.51962128 87.82327377 36.57415466 88.64947723 36.63034058 89.50071716 C37.37731914 101.24536171 37.37731914 101.24536171 36 104 C35.34 104 34.68 104 34 104 C34.0825 105.0725 34.165 106.145 34.25 107.25 C34 111 34 111 32.41796875 113.2421875 C29.09406306 115.65859713 27.10301479 115.28034513 23.0625 114.875 C21.85722656 114.76929688 20.65195312 114.66359375 19.41015625 114.5546875 C15.127153 113.85802489 12.09461137 113.09461137 9 110 C7.32867722 100.8865607 7.89449871 91.23722376 8 82 C4.37 81.67 0.74 81.34 -3 81 C-3.27070313 82.29035156 -3.54140625 83.58070312 -3.8203125 84.91015625 C-4.91995837 89.84310193 -6.31468783 94.63253869 -7.875 99.4375 C-8.11863281 100.23865234 -8.36226563 101.03980469 -8.61328125 101.86523438 C-8.86207031 102.63029297 -9.11085938 103.39535156 -9.3671875 104.18359375 C-9.58487793 104.86993896 -9.80256836 105.55628418 -10.02685547 106.26342773 C-11.32910793 108.58729169 -12.50894511 109.12689927 -15 110 C-17.88406101 110.13351803 -20.70265704 109.68174555 -23.5625 109.3125 C-24.33013672 109.23322266 -25.09777344 109.15394531 -25.88867188 109.07226562 C-31.35910714 108.40932709 -31.35910714 108.40932709 -33.74194336 106.88745117 C-35.68454174 103.97298813 -35.16950229 101.44357579 -35 98 C-34.29455566 94.94145203 -34.29455566 94.94145203 -33.29101562 91.8347168 C-32.91642212 90.65785812 -32.54182861 89.48099945 -32.15588379 88.26847839 C-31.7394897 86.99534261 -31.32294068 85.72225749 -30.90625 84.44921875 C-30.47608057 83.10933229 -30.04686005 81.76914085 -29.61853027 80.42866516 C-28.48620477 76.89303324 -27.34207308 73.36133724 -26.19506836 69.83044434 C-24.83718703 65.6440013 -23.49223473 61.45339518 -22.14588928 57.26323128 C-21.92638107 56.58010305 -21.70687286 55.89697483 -21.48071289 55.19314575 C-21.26198517 54.51244144 -21.04325745 53.83173714 -20.81790161 53.13040543 C-20.15822271 51.08034926 -19.49621247 49.03105809 -18.83374023 46.98190308 C-16.71329111 40.412873 -14.62764178 33.83618897 -12.62890625 27.22900391 C-12.26261108 26.02041214 -11.89631592 24.81182037 -11.5189209 23.56660461 C-10.83536814 21.29850736 -10.15741729 19.02871178 -9.48596191 16.75700378 C-9.1857312 15.75929459 -8.88550049 14.76158539 -8.57617188 13.73364258 C-8.31831909 12.86290604 -8.06046631 11.99216949 -7.7947998 11.095047 C-7 9 -7 9 -5 7 C-4.01 7 -3.02 7 -2 7 C-1.34 4.69 -0.68 2.38 0 0 Z " fill="#D8FA3E" transform="translate(315,41)"/>
<path d="M0 0 C1.11785889 -0.00315216 2.23571777 -0.00630432 3.38745117 -0.009552 C5.21240112 -0.00651566 5.21240112 -0.00651566 7.07421875 -0.00341797 C8.31341064 -0.00437469 9.55260254 -0.00533142 10.8293457 -0.00631714 C13.45560156 -0.00699921 16.08176508 -0.00564085 18.70800781 -0.00097656 C22.08100589 0.00472073 25.4539244 0.00144151 28.82691956 -0.00454903 C32.03435552 -0.00902317 35.24178175 -0.00589429 38.44921875 -0.00341797 C39.66585205 -0.0054422 40.88248535 -0.00746643 42.13598633 -0.009552 C43.81277466 -0.00482376 43.81277466 -0.00482376 45.5234375 0 C46.51303467 0.00079559 47.50263184 0.00159119 48.5222168 0.00241089 C50.76171875 0.12939453 50.76171875 0.12939453 51.76171875 1.12939453 C51.84823486 2.54509576 51.86876779 3.96498954 51.859375 5.38330078 C51.85454102 6.66430664 51.85454102 6.66430664 51.84960938 7.97119141 C51.83704102 9.31793945 51.83704102 9.31793945 51.82421875 10.69189453 C51.81970703 11.59359375 51.81519531 12.49529297 51.81054688 13.42431641 C51.798721 15.65940767 51.78224095 17.8943689 51.76171875 20.12939453 C50.77171875 20.45939453 49.78171875 20.78939453 48.76171875 21.12939453 C48.80296875 22.40814453 48.84421875 23.68689453 48.88671875 25.00439453 C48.95703125 27.18408203 48.95703125 27.18408203 48.76171875 29.12939453 C48.10171875 29.78939453 47.44171875 30.44939453 46.76171875 31.12939453 C42.47171875 31.12939453 38.18171875 31.12939453 33.76171875 31.12939453 C33.76171875 53.89939453 33.76171875 76.66939453 33.76171875 100.12939453 C32.77171875 100.62439453 32.77171875 100.62439453 31.76171875 101.12939453 C31.53660744 103.15539629 31.31763095 105.18398729 31.203125 107.21923828 C30.76171875 109.12939453 30.76171875 109.12939453 27.76171875 111.12939453 C25.81640625 111.38818359 25.81640625 111.38818359 23.63671875 111.39501953 C22.8478125 111.39759766 22.05890625 111.40017578 21.24609375 111.40283203 C20.42625 111.39509766 19.60640625 111.38736328 18.76171875 111.37939453 C17.53195313 111.39099609 17.53195313 111.39099609 16.27734375 111.40283203 C15.4884375 111.40025391 14.69953125 111.39767578 13.88671875 111.39501953 C13.16742188 111.39276367 12.448125 111.39050781 11.70703125 111.38818359 C9.76171875 111.12939453 9.76171875 111.12939453 6.76171875 109.12939453 C6.41971961 106.43723754 6.27244799 103.96602308 6.25 101.26611328 C6.23200348 100.4582135 6.21400696 99.65031372 6.19546509 98.81793213 C6.14032172 96.15096951 6.10690285 93.48421958 6.07421875 90.81689453 C6.04135935 88.97711562 6.00757743 87.13735297 5.97290039 85.29760742 C5.65737705 67.24337937 5.6573664 49.18556115 5.76171875 31.12939453 C4.62992188 31.15259766 3.498125 31.17580078 2.33203125 31.19970703 C0.850267 31.21846354 -0.63150437 31.23666387 -2.11328125 31.25439453 C-2.85964844 31.27115234 -3.60601562 31.28791016 -4.375 31.30517578 C-6.33022586 31.32279043 -8.28570146 31.23259642 -10.23828125 31.12939453 C-12.23828125 29.12939453 -12.23828125 29.12939453 -12.46533203 26.97460938 C-12.4548584 26.10529785 -12.44438477 25.23598633 -12.43359375 24.34033203 C-12.42714844 23.39931641 -12.42070312 22.45830078 -12.4140625 21.48876953 C-12.39730469 20.50392578 -12.38054687 19.51908203 -12.36328125 18.50439453 C-12.35425781 17.51181641 -12.34523437 16.51923828 -12.3359375 15.49658203 C-12.31232241 13.04061319 -12.27938924 10.58512285 -12.23828125 8.12939453 C-10.25828125 7.79939453 -8.27828125 7.46939453 -6.23828125 7.12939453 C-6.25890625 6.16001953 -6.27953125 5.19064453 -6.30078125 4.19189453 C-6.19835021 -0.82722639 -4.51983282 0.00363375 0 0 Z " fill="#D9FC3D" transform="translate(226.23828125,37.87060546875)"/>
<path d="M0 0 C2.11346263 5.39181344 3.81321825 10.70043106 5.17651367 16.32446289 C5.37202316 17.11417984 5.56753265 17.90389679 5.76896667 18.71754456 C6.40707059 21.30135678 7.03790297 23.8868731 7.66796875 26.47265625 C8.11188857 28.28296163 8.55600909 30.0932178 9.00032043 31.90342712 C9.92736652 35.68585274 10.85053979 39.46919883 11.77124023 43.25317383 C12.94932796 48.09273419 14.13927437 52.9292908 15.33240795 57.76516056 C16.25165298 61.49821472 17.16346345 65.23305536 18.07317543 68.96844292 C18.50879655 70.75237582 18.94696745 72.53568817 19.38777733 74.31834602 C20.00347145 76.81206423 20.60881092 79.30808408 21.21166992 81.80493164 C21.39397156 82.53395691 21.57627319 83.26298218 21.76409912 84.01409912 C22.83097704 88.49135575 23.17063183 92.43873736 23 97 C21.515 97.495 21.515 97.495 20 98 C20.103125 99.258125 20.20625 100.51625 20.3125 101.8125 C20.48828125 103.95703125 20.48828125 103.95703125 20 106 C16.60509856 108.62192752 13.13222336 109.69133901 9 110.6875 C7.989375 110.93886719 6.97875 111.19023437 5.9375 111.44921875 C3.13428246 111.97482204 0.83237731 112.33912106 -2 112 C-3.66015625 110.6796875 -3.66015625 110.6796875 -5.0625 108.875 C-5.81080078 107.92560547 -5.81080078 107.92560547 -6.57421875 106.95703125 C-8.47196882 104.35217431 -10.27380523 101.72207636 -12 99 C-12 100.98 -12 102.96 -12 105 C-13.98 105.99 -13.98 105.99 -16 107 C-15.6596875 108.6396875 -15.6596875 108.6396875 -15.3125 110.3125 C-15 114 -15 114 -16.12109375 115.625 C-21.43779604 119.51580916 -30.52101799 120.96495477 -37 120 C-40.31518985 116.70436484 -41.10486479 112.61603436 -42.14477539 108.20898438 C-42.3370723 107.427883 -42.5293692 106.64678162 -42.72749329 105.8420105 C-43.36021378 103.26143331 -43.97913518 100.67776413 -44.59765625 98.09375 C-45.03627259 96.28958156 -45.47560972 94.48558822 -45.91563416 92.6817627 C-46.83678104 88.89698951 -47.75153329 85.1107482 -48.66137695 81.32324219 C-49.82082735 76.49741067 -50.992273 71.67459843 -52.16814518 66.85274506 C-53.07685198 63.12326848 -53.98090113 59.39267556 -54.88342094 55.66169739 C-55.3133904 53.88507869 -55.7443348 52.10869563 -56.17631721 50.33256531 C-61.805201 27.14562334 -61.805201 27.14562334 -62 22 C-60 19 -60 19 -57.9375 18.0625 C-57.298125 17.711875 -56.65875 17.36125 -56 17 C-55.6278958 15.67696283 -55.29369827 14.34262065 -55 13 C-51.63388316 10.7559221 -48.50526744 9.92769477 -44.625 9.0625 C-43.965 8.88654297 -43.305 8.71058594 -42.625 8.52929688 C-40.6640625 8.09765625 -40.6640625 8.09765625 -37 8 C-33.44072131 10.740996 -31.10038028 14.05289584 -28.6875 17.8125 C-28.17574219 18.60269531 -27.66398437 19.39289063 -27.13671875 20.20703125 C-26.76160156 20.79871094 -26.38648438 21.39039062 -26 22 C-26.02320313 21.30132812 -26.04640625 20.60265625 -26.0703125 19.8828125 C-26.08835938 18.97273438 -26.10640625 18.06265625 -26.125 17.125 C-26.14820313 16.22007813 -26.17140625 15.31515625 -26.1953125 14.3828125 C-26 12 -26 12 -24 10 C-22.68 10 -21.36 10 -20 10 C-20.1546875 8.8553125 -20.1546875 8.8553125 -20.3125 7.6875 C-20 5 -20 5 -18 3.3125 C-11.98989134 0.68307746 -6.53732642 -0.2723886 0 0 Z M-11.75 2.4375 C-12.71421875 2.70433594 -13.6784375 2.97117188 -14.671875 3.24609375 C-16.93583884 3.7842147 -16.93583884 3.7842147 -18 5 C-17.50638916 12.3585985 -15.8524541 19.29914589 -14.0625 26.4375 C-12.2037032 33.93148127 -10.43359713 41.41180381 -9 49 C-9.39155273 48.42258057 -9.78310547 47.84516113 -10.18652344 47.25024414 C-18.67152008 34.74688584 -27.2340797 22.30820095 -36 10 C-40.85500176 10.44413172 -45.45237227 10.87943749 -50.0625 12.5625 C-51.375 13.04166667 -52.6875 13.52083333 -54 14 C-52.66478092 21.72431368 -51.08578553 29.36490597 -49.3125 37 C-49.05412354 38.11721436 -48.79574707 39.23442871 -48.52954102 40.38549805 C-46.35218113 49.6982085 -43.97948654 58.95421679 -41.54516602 68.20263672 C-39.45949509 76.14478802 -37.50044612 84.10800791 -35.68530273 92.11645508 C-34.43539088 97.5323663 -32.8459045 102.75744381 -31 108 C-24.69747567 107.58279783 -19.6823114 106.8411557 -14 104 C-15.60129774 94.55926397 -17.75000975 85.28135435 -19.96484375 75.96875 C-20.22652344 74.855 -20.48820312 73.74125 -20.7578125 72.59375 C-20.9964502 71.59021484 -21.23508789 70.58667969 -21.48095703 69.55273438 C-22 67 -22 67 -22 64 C-20.62353807 65.91562905 -19.24889129 67.83252792 -17.875 69.75 C-17.22023682 70.66120605 -17.22023682 70.66120605 -16.55224609 71.59082031 C-13.77621068 75.4682437 -11.04949444 79.37491192 -8.359375 83.3125 C-7.74078613 84.21258789 -7.12219727 85.11267578 -6.48486328 86.04003906 C-5.25727324 87.82873025 -4.03672915 89.62228017 -2.82373047 91.42089844 C-2.25541504 92.2462207 -1.68709961 93.07154297 -1.1015625 93.921875 C-0.34866943 95.02934082 -0.34866943 95.02934082 0.41943359 96.15917969 C2.17288944 98.20135718 3.47186118 99.10065121 6 100 C9.49961012 99.62588765 9.49961012 99.62588765 13.1875 98.6875 C14.43917969 98.40261719 15.69085938 98.11773437 16.98046875 97.82421875 C19.85850929 97.306807 19.85850929 97.306807 21 96 C21.5848571 88.69365087 19.74583903 82.31875037 17.8125 75.3125 C17.15858932 72.86760605 16.50625744 70.42228932 15.85546875 67.9765625 C15.374729 66.1807373 15.374729 66.1807373 14.88427734 64.34863281 C13.72977749 59.97670568 12.65824351 55.5894381 11.625 51.1875 C11.4401001 50.40383057 11.2552002 49.62016113 11.06469727 48.81274414 C10.37382669 45.87577593 9.68678785 42.9379258 9 40 C7.62763498 34.13020061 6.25163299 28.26127387 4.87078857 22.39346313 C4.25554993 19.77363291 3.64458514 17.15282866 3.03369141 14.53198242 C2.65288494 12.91189591 2.27187201 11.2918579 1.890625 9.671875 C1.62688583 8.53281456 1.62688583 8.53281456 1.3578186 7.3707428 C0.76714835 3.89694147 0.76714835 3.89694147 -1 1 C-4.84386852 0.73420058 -8.05945699 1.39517096 -11.75 2.4375 Z M-14 96 C-13 98 -13 98 -13 98 Z " fill="#4D037F" transform="translate(128,51)"/>
<path d="M0 0 C5.38703922 3.96478294 8.33641018 8.36207898 9.75 14.98828125 C10.72303253 23.54792679 8.31345463 32.77223529 4 40.1875 C0.14785727 41.57855154 -3.05318074 41.01357845 -7 40.1875 C-6.21625 41.074375 -5.4325 41.96125 -4.625 42.875 C-0.03761113 48.06599267 0.54511268 53.3905146 0.453125 60.11328125 C-0.57700785 72.9866819 -5.46366351 92.08463335 -15 101.1875 C-22.55174301 105.87530854 -29.53694341 107.27473868 -38.33984375 105.33984375 C-48.50044755 102.77211511 -55.78844752 100.30104393 -61.9375 91.375 C-64.47168434 83.77244697 -64.39915301 76.81220546 -62 69.1875 C-61 67.1875 -61 67.1875 -59.0625 66.375 C-56.31667593 64.79407099 -56.11047166 63.07472632 -55 60.1875 C-51.61725734 59.05991911 -50.23221777 59.36999738 -46.8125 60.125 C-45.91144531 60.31964844 -45.01039063 60.51429687 -44.08203125 60.71484375 C-43.05142578 60.94880859 -43.05142578 60.94880859 -42 61.1875 C-42.54269531 60.76339844 -43.08539063 60.33929688 -43.64453125 59.90234375 C-49.53664075 55.0718756 -52.00693958 51.15974169 -53.875 43.6875 C-54.90336411 32.85819629 -50.76157624 17.94049896 -44.875 8.9375 C-43 7.1875 -43 7.1875 -41 7.1875 C-40.835 6.48625 -40.67 5.785 -40.5 5.0625 C-37.84579842 -0.02471969 -33.12672609 -2.83775054 -28 -5.1875 C-18.39197426 -7.18917203 -8.30942879 -5.21563817 0 0 Z M-38 3.1875 C-41.35571739 8.37360869 -42.80371 13.74349892 -44.25 19.6875 C-44.42539307 20.3993042 -44.60078613 21.1111084 -44.78149414 21.84448242 C-46.41828459 29.02638546 -47.12412394 35.62827306 -43.37109375 42.23828125 C-37.64916951 50.37286871 -30.42070428 52.87540642 -21 55.1875 C-20.51547537 62.13235303 -22.30712509 68.4865368 -24 75.1875 C-27.96 74.5275 -31.92 73.8675 -36 73.1875 C-37.06546953 69.9910914 -37.07427838 67.53002724 -37 64.1875 C-39.08201528 63.68203964 -41.16567067 63.18333165 -43.25 62.6875 C-44.41015625 62.4090625 -45.5703125 62.130625 -46.765625 61.84375 C-50.10330712 61.05493548 -50.10330712 61.05493548 -54 61.1875 C-56.2617554 68.1141259 -57.08563837 74.31786472 -54.13671875 81.203125 C-50.60067256 87.37601663 -45.76601398 90.23889545 -39.06323242 92.09277344 C-29.78875848 94.41485374 -22.84111338 95.27006605 -14.234375 90.6015625 C-8.73594788 87.12178869 -6.86146219 82.19221675 -5 76.1875 C-4.57847656 74.87265625 -4.57847656 74.87265625 -4.1484375 73.53125 C-1.74799878 65.18579949 0.48148921 54.84120222 -3.13671875 46.59765625 C-8.17318269 39.4990181 -14.46011904 36.79295033 -22.70703125 34.80078125 C-25 34.1875 -25 34.1875 -26 33.1875 C-25.84346124 27.01023953 -24.6475806 21.11879014 -23 15.1875 C-21.3745692 15.32845064 -19.74965949 15.47542087 -18.125 15.625 C-17.22007812 15.70621094 -16.31515625 15.78742188 -15.3828125 15.87109375 C-13 16.1875 -13 16.1875 -11 17.1875 C-11 19.8275 -11 22.4675 -11 25.1875 C-8.94237091 25.88944375 -6.87863969 26.57351697 -4.8125 27.25 C-3.66394531 27.63285156 -2.51539063 28.01570313 -1.33203125 28.41015625 C1.97454508 29.18156151 3.79082314 29.14843996 7 28.1875 C8.66962664 22.25411609 9.20999655 16.18946375 6.87109375 10.38671875 C2.83833373 3.27937406 -1.38148481 -0.13420834 -9.1875 -2.5625 C-19.90371733 -5.21603953 -29.80633853 -5.00616147 -38 3.1875 Z M-25 26.1875 C-25.33 28.1675 -25.66 30.1475 -26 32.1875 C-23.04622502 34.55730013 -23.04622502 34.55730013 -19 34.1875 C-18.67 31.8775 -18.34 29.5675 -18 27.1875 C-20.31 26.8575 -22.62 26.5275 -25 26.1875 Z M-35 64.1875 C-35.33 66.8275 -35.66 69.4675 -36 72.1875 C-33.69 72.8475 -31.38 73.5075 -29 74.1875 C-28.67 71.2175 -28.34 68.2475 -28 65.1875 C-30.31 64.8575 -32.62 64.5275 -35 64.1875 Z " fill="#4B027B" transform="translate(420,59.8125)"/>
<path d="M0 0 C6.5836771 -0.25107243 12.97421678 0.11510906 19.5 0.9375 C20.19416016 1.02435059 20.88832031 1.11120117 21.60351562 1.20068359 C24.53422121 1.58967077 27.18752565 2.06250855 30 3 C31.63071014 6.26142029 31.43817932 9.89249022 31.66430664 13.48535156 C31.72297409 14.36358078 31.78164154 15.24181 31.84208679 16.14665222 C32.03566107 19.06104872 32.22299979 21.97580987 32.41015625 24.890625 C32.54292794 26.91365632 32.67602448 28.93666634 32.80943298 30.95965576 C33.08859064 35.20649608 33.36485729 39.45351124 33.63891602 43.70068359 C33.98994355 49.13942848 34.34643909 54.57779681 34.7049036 60.01605606 C34.98018177 64.19728176 35.25336973 68.37864185 35.52584648 72.56005096 C35.65657069 74.56470422 35.7877484 76.56932796 35.91938972 78.5739212 C36.10328227 81.38151264 36.28456382 84.18926053 36.46508789 86.99707031 C36.51962128 87.82327377 36.57415466 88.64947723 36.63034058 89.50071716 C37.37731914 101.24536171 37.37731914 101.24536171 36 104 C35.34 104 34.68 104 34 104 C34.0825 105.0725 34.165 106.145 34.25 107.25 C34 111 34 111 32.41796875 113.2421875 C29.09406306 115.65859713 27.10301479 115.28034513 23.0625 114.875 C21.85722656 114.76929688 20.65195312 114.66359375 19.41015625 114.5546875 C15.127153 113.85802489 12.09461137 113.09461137 9 110 C7.32867722 100.8865607 7.89449871 91.23722376 8 82 C4.37 81.67 0.74 81.34 -3 81 C-3.27070313 82.29035156 -3.54140625 83.58070312 -3.8203125 84.91015625 C-4.91995837 89.84310193 -6.31468783 94.63253869 -7.875 99.4375 C-8.11863281 100.23865234 -8.36226563 101.03980469 -8.61328125 101.86523438 C-8.86207031 102.63029297 -9.11085938 103.39535156 -9.3671875 104.18359375 C-9.58487793 104.86993896 -9.80256836 105.55628418 -10.02685547 106.26342773 C-11.32910793 108.58729169 -12.50894511 109.12689927 -15 110 C-17.88406101 110.13351803 -20.70265704 109.68174555 -23.5625 109.3125 C-24.33013672 109.23322266 -25.09777344 109.15394531 -25.88867188 109.07226562 C-31.35910714 108.40932709 -31.35910714 108.40932709 -33.74194336 106.88745117 C-35.68454174 103.97298813 -35.16950229 101.44357579 -35 98 C-34.29455566 94.94145203 -34.29455566 94.94145203 -33.29101562 91.8347168 C-32.91642212 90.65785812 -32.54182861 89.48099945 -32.15588379 88.26847839 C-31.7394897 86.99534261 -31.32294068 85.72225749 -30.90625 84.44921875 C-30.47608057 83.10933229 -30.04686005 81.76914085 -29.61853027 80.42866516 C-28.48620477 76.89303324 -27.34207308 73.36133724 -26.19506836 69.83044434 C-24.83718703 65.6440013 -23.49223473 61.45339518 -22.14588928 57.26323128 C-21.92638107 56.58010305 -21.70687286 55.89697483 -21.48071289 55.19314575 C-21.26198517 54.51244144 -21.04325745 53.83173714 -20.81790161 53.13040543 C-20.15822271 51.08034926 -19.49621247 49.03105809 -18.83374023 46.98190308 C-16.71329111 40.412873 -14.62764178 33.83618897 -12.62890625 27.22900391 C-12.26261108 26.02041214 -11.89631592 24.81182037 -11.5189209 23.56660461 C-10.83536814 21.29850736 -10.15741729 19.02871178 -9.48596191 16.75700378 C-9.1857312 15.75929459 -8.88550049 14.76158539 -8.57617188 13.73364258 C-8.31831909 12.86290604 -8.06046631 11.99216949 -7.7947998 11.095047 C-7 9 -7 9 -5 7 C-4.01 7 -3.02 7 -2 7 C-1.34 4.69 -0.68 2.38 0 0 Z M2 1 C-0.5591272 4.43869171 -1.81980042 8.05867355 -3.08129883 12.12524414 C-3.46212112 13.34164078 -3.84294342 14.55803741 -4.23530579 15.81129456 C-4.64270936 17.13586538 -5.04994665 18.46048736 -5.45703125 19.78515625 C-5.88623067 21.1651626 -6.31598454 22.54499662 -6.7462616 23.92466736 C-7.87922222 27.56314745 -9.0041267 31.20407112 -10.12750244 34.84552002 C-11.24967898 38.47742044 -12.38022889 42.10671157 -13.50976562 45.73632812 C-15.44550241 51.96116133 -17.36962209 58.18948495 -19.28373909 64.42099953 C-20.50546066 68.39773756 -21.73721439 72.37122442 -22.97412109 76.34326172 C-23.52879222 78.14406044 -24.08303245 79.94499198 -24.63671875 81.74609375 C-24.88380081 82.53162125 -25.13088287 83.31714874 -25.38545227 84.1264801 C-26.51736057 87.84382844 -27.29006548 91.10353365 -27 95 C-23.59648662 97.03219488 -20.6767073 97.36891039 -16.75 97.625 C-15.67234375 97.69976562 -14.5946875 97.77453125 -13.484375 97.8515625 C-12.25460937 97.92503906 -12.25460937 97.92503906 -11 98 C-8.87119856 94.66224034 -7.36216974 91.54290096 -6.17578125 87.76953125 C-5.86962891 86.80208984 -5.56347656 85.83464844 -5.24804688 84.83789062 C-4.78495117 83.34032227 -4.78495117 83.34032227 -4.3125 81.8125 C-3.99216797 80.80251953 -3.67183594 79.79253906 -3.34179688 78.75195312 C-1.66508814 73.96396013 -1.66508814 73.96396013 -1 69 C-0.21625 69.165 0.5675 69.33 1.375 69.5 C4.4208902 69.92012279 7.16632557 70.05128428 10.2265625 70.03125 C11.12197754 70.02673828 12.01739258 70.02222656 12.93994141 70.01757812 C13.61976074 70.01177734 14.29958008 70.00597656 15 70 C15.06058594 71.31613281 15.12117188 72.63226563 15.18359375 73.98828125 C15.82074768 87.51318823 15.82074768 87.51318823 17 101 C22.79305637 102.5019035 28.00748387 103.32102765 34 103 C35.31213809 101.91181386 35.31213809 101.91181386 35.13363647 99.25733948 C35.11390286 89.10733294 34.63611516 79.02930019 33.9765625 68.90234375 C33.86906688 67.21180887 33.76176065 65.52126194 33.65463257 63.83070374 C33.43094969 60.32026277 33.20352946 56.81008809 32.97363281 53.30004883 C32.68019846 48.81198826 32.39861161 44.32326888 32.12001991 39.83426571 C31.9025144 36.35687325 31.67764115 32.87998608 31.45066452 29.40320015 C31.34368357 27.74762683 31.23923855 26.09188751 31.13743973 24.43598747 C30.99463412 22.12724304 30.84160679 19.81938926 30.68603516 17.51147461 C30.60165192 16.20214462 30.51726868 14.89281464 30.43032837 13.54380798 C30.01408524 10.11599372 29.21831181 7.22108932 28 4 C25.16793882 3.49168133 22.33470266 2.99318495 19.5 2.5 C18.70851563 2.35691406 17.91703125 2.21382812 17.1015625 2.06640625 C11.99958481 1.18819698 7.16484052 0.41614846 2 1 Z " fill="#5C069C" transform="translate(315,41)"/>
<path d="M0 0 C1.11785889 -0.00315216 2.23571777 -0.00630432 3.38745117 -0.009552 C5.21240112 -0.00651566 5.21240112 -0.00651566 7.07421875 -0.00341797 C8.31341064 -0.00437469 9.55260254 -0.00533142 10.8293457 -0.00631714 C13.45560156 -0.00699921 16.08176508 -0.00564085 18.70800781 -0.00097656 C22.08100589 0.00472073 25.4539244 0.00144151 28.82691956 -0.00454903 C32.03435552 -0.00902317 35.24178175 -0.00589429 38.44921875 -0.00341797 C39.66585205 -0.0054422 40.88248535 -0.00746643 42.13598633 -0.009552 C43.81277466 -0.00482376 43.81277466 -0.00482376 45.5234375 0 C46.51303467 0.00079559 47.50263184 0.00159119 48.5222168 0.00241089 C50.76171875 0.12939453 50.76171875 0.12939453 51.76171875 1.12939453 C51.84823486 2.54509576 51.86876779 3.96498954 51.859375 5.38330078 C51.85454102 6.66430664 51.85454102 6.66430664 51.84960938 7.97119141 C51.83704102 9.31793945 51.83704102 9.31793945 51.82421875 10.69189453 C51.81970703 11.59359375 51.81519531 12.49529297 51.81054688 13.42431641 C51.798721 15.65940767 51.78224095 17.8943689 51.76171875 20.12939453 C50.77171875 20.45939453 49.78171875 20.78939453 48.76171875 21.12939453 C48.80296875 22.40814453 48.84421875 23.68689453 48.88671875 25.00439453 C48.95703125 27.18408203 48.95703125 27.18408203 48.76171875 29.12939453 C48.10171875 29.78939453 47.44171875 30.44939453 46.76171875 31.12939453 C42.47171875 31.12939453 38.18171875 31.12939453 33.76171875 31.12939453 C33.76171875 53.89939453 33.76171875 76.66939453 33.76171875 100.12939453 C32.77171875 100.62439453 32.77171875 100.62439453 31.76171875 101.12939453 C31.53660744 103.15539629 31.31763095 105.18398729 31.203125 107.21923828 C30.76171875 109.12939453 30.76171875 109.12939453 27.76171875 111.12939453 C25.81640625 111.38818359 25.81640625 111.38818359 23.63671875 111.39501953 C22.8478125 111.39759766 22.05890625 111.40017578 21.24609375 111.40283203 C20.42625 111.39509766 19.60640625 111.38736328 18.76171875 111.37939453 C17.53195313 111.39099609 17.53195313 111.39099609 16.27734375 111.40283203 C15.4884375 111.40025391 14.69953125 111.39767578 13.88671875 111.39501953 C13.16742188 111.39276367 12.448125 111.39050781 11.70703125 111.38818359 C9.76171875 111.12939453 9.76171875 111.12939453 6.76171875 109.12939453 C6.41971961 106.43723754 6.27244799 103.96602308 6.25 101.26611328 C6.23200348 100.4582135 6.21400696 99.65031372 6.19546509 98.81793213 C6.14032172 96.15096951 6.10690285 93.48421958 6.07421875 90.81689453 C6.04135935 88.97711562 6.00757743 87.13735297 5.97290039 85.29760742 C5.65737705 67.24337937 5.6573664 49.18556115 5.76171875 31.12939453 C4.62992188 31.15259766 3.498125 31.17580078 2.33203125 31.19970703 C0.850267 31.21846354 -0.63150437 31.23666387 -2.11328125 31.25439453 C-2.85964844 31.27115234 -3.60601562 31.28791016 -4.375 31.30517578 C-6.33022586 31.32279043 -8.28570146 31.23259642 -10.23828125 31.12939453 C-12.23828125 29.12939453 -12.23828125 29.12939453 -12.46533203 26.97460938 C-12.4548584 26.10529785 -12.44438477 25.23598633 -12.43359375 24.34033203 C-12.42714844 23.39931641 -12.42070312 22.45830078 -12.4140625 21.48876953 C-12.39730469 20.50392578 -12.38054687 19.51908203 -12.36328125 18.50439453 C-12.35425781 17.51181641 -12.34523437 16.51923828 -12.3359375 15.49658203 C-12.31232241 13.04061319 -12.27938924 10.58512285 -12.23828125 8.12939453 C-10.25828125 7.79939453 -8.27828125 7.46939453 -6.23828125 7.12939453 C-6.25890625 6.16001953 -6.27953125 5.19064453 -6.30078125 4.19189453 C-6.19835021 -0.82722639 -4.51983282 0.00363375 0 0 Z M-4.23828125 1.12939453 C-4.23828125 7.06939453 -4.23828125 13.00939453 -4.23828125 19.12939453 C1.70171875 19.12939453 7.64171875 19.12939453 13.76171875 19.12939453 C13.75648193 21.51730225 13.75124512 23.90520996 13.74584961 26.36547852 C13.72931358 34.23649624 13.71824747 42.10751472 13.70990658 49.97854519 C13.70467782 54.75287733 13.69758031 59.52719174 13.6862793 64.30151367 C13.67545015 68.90505715 13.66944186 73.50858352 13.66684151 78.11213875 C13.66498731 79.87249076 13.66136679 81.63284179 13.65598869 83.39318657 C13.64877789 85.8501173 13.64772782 88.30697648 13.64819336 90.76391602 C13.64459808 91.49902908 13.64100281 92.23414215 13.63729858 92.99153137 C13.34771207 96.3452256 13.34771207 96.3452256 14.76171875 99.12939453 C20.37171875 99.12939453 25.98171875 99.12939453 31.76171875 99.12939453 C31.76171875 72.72939453 31.76171875 46.32939453 31.76171875 19.12939453 C37.70171875 19.12939453 43.64171875 19.12939453 49.76171875 19.12939453 C49.76171875 13.18939453 49.76171875 7.24939453 49.76171875 1.12939453 C31.94171875 1.12939453 14.12171875 1.12939453 -4.23828125 1.12939453 Z " fill="#480076" transform="translate(226.23828125,37.87060546875)"/>
<path d="M0 0 C7.31135429 6.64668572 8.36688927 15.84450033 9.515625 25.2734375 C9.70902214 26.79197327 9.70902214 26.79197327 9.90632629 28.34118652 C10.17544456 30.47525792 10.43991172 32.60992051 10.69995117 34.74511719 C11.0933586 37.95709923 11.50753425 41.16591398 11.92382812 44.375 C16.91670082 83.87263308 16.91670082 83.87263308 6.01171875 97.94140625 C-2.13884113 105.62483918 -12.57332171 106.85099765 -23.3828125 106.703125 C-30.65168621 106.13671926 -36.27821108 102.90910203 -41.08984375 97.4921875 C-45.07853698 90.86730763 -46.09632361 83.81716421 -47.01171875 76.2578125 C-47.23628754 74.52528229 -47.23628754 74.52528229 -47.46539307 72.75775146 C-47.77769979 70.32469853 -48.08322824 67.89076692 -48.38232422 65.45605469 C-48.83700575 61.76522463 -49.31516247 58.07801385 -49.796875 54.390625 C-50.09905729 52.01319849 -50.39988256 49.63559903 -50.69921875 47.2578125 C-50.83978699 46.17195862 -50.98035522 45.08610474 -51.12518311 43.96734619 C-52.66069976 31.28237914 -53.46358888 20.96617021 -46.46484375 9.9296875 C-45.78421875 9.218125 -45.78421875 9.218125 -45.08984375 8.4921875 C-44.42984375 8.4921875 -43.76984375 8.4921875 -43.08984375 8.4921875 C-42.92484375 7.7909375 -42.75984375 7.0896875 -42.58984375 6.3671875 C-39.82479996 1.06752023 -35.03536524 -1.79104142 -29.52734375 -3.8203125 C-18.62471171 -6.00083891 -9.40966029 -6.78902593 0 0 Z M-40.08984375 4.4921875 C-43.47730353 9.56703213 -44.71317147 13.27144077 -44.51171875 19.4296875 C-44.49840515 20.19837158 -44.48509155 20.96705566 -44.47137451 21.7590332 C-44.19533917 31.35452478 -42.99691079 40.87243205 -41.74609375 50.38134766 C-41.33700693 53.5139103 -40.9547129 56.6490064 -40.57421875 59.78515625 C-40.31539395 61.81270384 -40.05503217 63.84005596 -39.79296875 65.8671875 C-39.68237122 66.78717529 -39.57177368 67.70716309 -39.45782471 68.6550293 C-38.39526481 76.47749919 -36.68424388 84.45186592 -30.71484375 89.9921875 C-23.3949811 95.44741145 -15.31874162 95.25065299 -6.5234375 94.1796875 C1.33051118 92.69129114 6.24974803 88.83552091 10.91015625 82.4921875 C14.91781461 74.06255834 12.81370037 64.01759292 11.703125 55.05078125 C11.57706375 54.00245621 11.4510025 52.95413116 11.32112122 51.8740387 C11.05456364 49.67449079 10.7846388 47.47534853 10.51147461 45.27661133 C10.09847766 41.93633103 9.70195871 38.59436627 9.30664062 35.25195312 C9.04396299 33.10144082 8.78032336 30.95104576 8.515625 28.80078125 C8.39986618 27.81508652 8.28410736 26.82939178 8.1648407 25.81382751 C6.84635502 15.4245856 5.05811298 6.58550265 -3.08984375 -0.5078125 C-13.68716253 -7.15711056 -31.5722992 -4.67626111 -40.08984375 4.4921875 Z " fill="#57068F" transform="translate(196.08984375,47.5078125)"/>
<path d="M0 0 C0.76782227 2.10131836 0.76782227 2.10131836 1.31640625 4.83984375 C1.52330078 5.82017578 1.73019531 6.80050781 1.94335938 7.81054688 C2.14767578 8.84244141 2.35199219 9.87433594 2.5625 10.9375 C2.9738539 12.96879869 3.39152419 14.99883157 3.81640625 17.02734375 C3.99631104 17.93218506 4.17621582 18.83702637 4.36157227 19.76928711 C4.85626098 22.17976179 4.85626098 22.17976179 7 24 C7.74328315 26.37109003 8.3914154 28.7051464 8.98828125 31.11328125 C9.17186188 31.83111786 9.3554425 32.54895447 9.54458618 33.2885437 C10.14084306 35.62816041 10.72687337 37.97020195 11.3125 40.3125 C11.71839179 41.91523183 12.12472414 43.51785216 12.53149414 45.12036133 C15.29334199 56.03443363 17.95980262 66.96984042 20.51123047 77.93505859 C21.30736553 81.29855027 22.15366627 84.64882204 23 88 C27.95 88 32.9 88 38 88 C39 95 39 95 37.921875 96.83203125 C32.18472602 100.31863195 23.64766896 101.99007836 17 101 C13.68481015 97.70436484 12.89513521 93.61603436 11.85522461 89.20898438 C11.6629277 88.427883 11.4706308 87.64678162 11.27250671 86.8420105 C10.63978622 84.26143331 10.02086482 81.67776413 9.40234375 79.09375 C8.96372741 77.28958156 8.52439028 75.48558822 8.08436584 73.6817627 C7.16321896 69.89698951 6.24846671 66.1107482 5.33862305 62.32324219 C4.17917265 57.49741067 3.007727 52.67459843 1.83185482 47.85274506 C0.92314802 44.12326848 0.01909887 40.39267556 -0.88342094 36.66169739 C-1.3133904 34.88507869 -1.7443348 33.10869563 -2.17631721 31.33256531 C-7.805201 8.14562334 -7.805201 8.14562334 -8 3 C-5.45189726 -0.82215411 -4.39145359 -1.46381786 0 0 Z " fill="#4C037C" transform="translate(74,70)"/>
<path d="M0 0 C5.38907033 3.9662778 8.30513055 8.35131802 9.7578125 14.96484375 C10.3200515 20.12474679 9.63448237 25.28405289 8 30.1875 C6.35 30.1875 4.7 30.1875 3 30.1875 C3.99 29.5275 4.98 28.8675 6 28.1875 C8.04924611 22.58541893 8.03458936 15.92477148 5.94140625 10.38671875 C2.70129842 4.45969224 -0.58722722 1.28047328 -7 -0.8125 C-7.62777344 -1.03421875 -8.25554687 -1.2559375 -8.90234375 -1.484375 C-15.50493448 -3.48270512 -23.34633388 -4.12836653 -29.875 -1.625 C-37.76297613 2.95002616 -40.63252302 9.07991504 -42.9140625 17.6015625 C-45.93215488 30.23977954 -45.93215488 30.23977954 -42.3046875 42.3046875 C-37.50156289 49.23614278 -31.69339501 51.26684554 -23.6953125 53.42578125 C-21 54.1875 -21 54.1875 -20 55.1875 C-19.19601415 62.26257547 -21.76426466 68.55016071 -24 75.1875 C-28.77962147 75.37868486 -32.60470084 75.17584962 -37 73.1875 C-38.15941038 69.70926885 -37.70820884 67.72854422 -37 64.1875 C-37.8353125 64.11402344 -37.8353125 64.11402344 -38.6875 64.0390625 C-43.96567265 63.52194423 -48.88362365 62.58287537 -54 61.1875 C-54.16843931 63.43736799 -54.33468654 65.68740017 -54.5 67.9375 C-54.5928125 69.19046875 -54.685625 70.4434375 -54.78125 71.734375 C-54.93838402 74.21484771 -55 76.70205517 -55 79.1875 C-55.66 79.1875 -56.32 79.1875 -57 79.1875 C-57.05428973 76.95860504 -57.09292338 74.72932529 -57.125 72.5 C-57.15980469 70.63794922 -57.15980469 70.63794922 -57.1953125 68.73828125 C-57.00829894 65.33837476 -56.65693882 63.14475173 -55 60.1875 C-51.61725734 59.05991911 -50.23221777 59.36999738 -46.8125 60.125 C-45.91144531 60.31964844 -45.01039063 60.51429687 -44.08203125 60.71484375 C-43.39496094 60.87082031 -42.70789063 61.02679688 -42 61.1875 C-42.81404297 60.55134766 -42.81404297 60.55134766 -43.64453125 59.90234375 C-49.53664075 55.0718756 -52.00693958 51.15974169 -53.875 43.6875 C-54.90336411 32.85819629 -50.76157624 17.94049896 -44.875 8.9375 C-43 7.1875 -43 7.1875 -41 7.1875 C-40.835 6.48625 -40.67 5.785 -40.5 5.0625 C-37.84579842 -0.02471969 -33.12672609 -2.83775054 -28 -5.1875 C-18.39197426 -7.18917203 -8.30942879 -5.21563817 0 0 Z M-35 64.1875 C-35.33 66.8275 -35.66 69.4675 -36 72.1875 C-33.69 72.8475 -31.38 73.5075 -29 74.1875 C-28.67 71.2175 -28.34 68.2475 -28 65.1875 C-30.31 64.8575 -32.62 64.5275 -35 64.1875 Z " fill="#5D0999" transform="translate(420,59.8125)"/>
<path d="M0 0 C0.99 0.33 1.98 0.66 3 1 C1.78712251 9.36344026 -0.47790487 17.27271176 -3.07000923 25.2960701 C-3.77030278 27.46484169 -4.46152589 29.63633087 -5.15061951 31.8086853 C-6.86165561 37.19710996 -8.58595619 42.58126111 -10.31311035 47.96453857 C-11.77877615 52.53337019 -13.23769053 57.10424269 -14.68717766 61.6782341 C-15.36358657 63.80342992 -16.04972104 65.92531844 -16.73622131 68.04727173 C-18.86370961 74.7095744 -20.5836766 80.99517833 -21 88 C-20.01 88.33 -19.02 88.66 -18 89 C-18 89.66 -18 90.32 -18 91 C-11.07 91.495 -11.07 91.495 -4 92 C-5.46345191 100.53680278 -5.46345191 100.53680278 -7.54296875 102.33203125 C-11.30621367 103.35510737 -14.73202405 102.80706778 -18.5625 102.3125 C-19.33013672 102.23322266 -20.09777344 102.15394531 -20.88867188 102.07226562 C-26.35910714 101.40932709 -26.35910714 101.40932709 -28.74194336 99.88745117 C-30.68454174 96.97298813 -30.16950229 94.44357579 -30 91 C-29.29455566 87.94145203 -29.29455566 87.94145203 -28.29101562 84.8347168 C-27.91642212 83.65785812 -27.54182861 82.48099945 -27.15588379 81.26847839 C-26.7394897 79.99534261 -26.32294068 78.72225749 -25.90625 77.44921875 C-25.47608057 76.10933229 -25.04686005 74.76914085 -24.61853027 73.42866516 C-23.48620477 69.89303324 -22.34207308 66.36133724 -21.19506836 62.83044434 C-19.83718703 58.6440013 -18.49223473 54.45339518 -17.14588928 50.26323128 C-16.92638107 49.58010305 -16.70687286 48.89697483 -16.48071289 48.19314575 C-16.26198517 47.51244144 -16.04325745 46.83173714 -15.81790161 46.13040543 C-15.15822271 44.08034926 -14.49621247 42.03105809 -13.83374023 39.98190308 C-11.71329111 33.412873 -9.62764178 26.83618897 -7.62890625 20.22900391 C-7.26261108 19.02041214 -6.89631592 17.81182037 -6.5189209 16.56660461 C-5.83536814 14.29850736 -5.15741729 12.02871178 -4.48596191 9.75700378 C-4.1857312 8.75929459 -3.88550049 7.76158539 -3.57617188 6.73364258 C-3.31831909 5.86290604 -3.06046631 4.99216949 -2.7947998 4.095047 C-2 2 -2 2 0 0 Z " fill="#4D037D" transform="translate(310,48)"/>
<path d="M0 0 C2.4426523 2.4426523 2.42212536 3.54656293 2.86962891 6.92114258 C3.00962311 7.94593216 3.14961731 8.97072174 3.29385376 10.02656555 C3.43664764 11.13799423 3.57944153 12.24942291 3.7265625 13.39453125 C3.87910492 14.53403732 4.03164734 15.6735434 4.18881226 16.84757996 C4.51039517 19.26219825 4.82787638 21.67736578 5.14160156 24.09301758 C5.6218003 27.78788009 6.11445567 31.4809116 6.609375 35.17382812 C6.92000707 37.51813173 7.22992633 39.86252992 7.5390625 42.20703125 C7.75932602 43.86506523 7.75932602 43.86506523 7.98403931 45.55659485 C8.18457413 47.10796394 8.18457413 47.10796394 8.38916016 48.69067383 C8.50748199 49.59731277 8.62580383 50.50395172 8.74771118 51.43806458 C9.00059003 54.00599165 9.18330203 56.42401857 9 59 C6.44662276 61.55337724 5.04725582 61.43261395 1.5 61.75 C0.5203125 61.84796875 -0.459375 61.9459375 -1.46875 62.046875 C-4 62 -4 62 -6 60 C-6.46829224 57.87043762 -6.46829224 57.87043762 -6.77783203 55.20239258 C-6.89780548 54.20407913 -7.01777893 53.20576569 -7.14138794 52.17720032 C-7.3227681 50.55227913 -7.3227681 50.55227913 -7.5078125 48.89453125 C-7.63815887 47.78196457 -7.76850525 46.66939789 -7.90280151 45.52311707 C-8.17742664 43.16391645 -8.44782465 40.80422057 -8.71435547 38.4440918 C-9.1214726 34.84369503 -9.54200376 31.24506485 -9.96484375 27.64648438 C-10.2299652 25.35425888 -10.49431301 23.06194376 -10.7578125 20.76953125 C-10.94526535 19.15979179 -10.94526535 19.15979179 -11.13650513 17.51753235 C-11.72038626 12.3085646 -12.14720924 7.24166751 -12 2 C-8.07925671 -0.61382886 -4.55488983 -0.29386386 0 0 Z M-10 12 C-9.19498939 18.81920674 -8.37574135 25.63659225 -7.54638672 32.45288086 C-7.26572695 34.77377133 -6.98837637 37.09506439 -6.71435547 39.41674805 C-6.32079477 42.74638518 -5.91550598 46.07441141 -5.5078125 49.40234375 C-5.3868924 50.44712387 -5.26597229 51.49190399 -5.14138794 52.56834412 C-5.02141449 53.52926468 -4.90144104 54.49018524 -4.77783203 55.48022461 C-4.6756839 56.33071884 -4.57353577 57.18121307 -4.46829224 58.05747986 C-4.3137558 58.69851151 -4.15921936 59.33954315 -4 60 C-3.34 60.33 -2.68 60.66 -2 61 C-1.01 60.505 -1.01 60.505 0 60 C-0.57569228 50.40639109 -1.51667789 40.91235117 -2.72949219 31.38183594 C-3.00495507 29.21094976 -3.27229528 27.03915767 -3.5390625 24.8671875 C-3.71306688 23.47910707 -3.88752805 22.0910838 -4.0625 20.703125 C-4.21847656 19.46208008 -4.37445313 18.22103516 -4.53515625 16.94238281 C-4.83612295 14.0759519 -4.83612295 14.0759519 -6 12 C-7.32 12 -8.64 12 -10 12 Z " fill="#5A0893" transform="translate(182,62)"/>
<path d="M0 0 C2.11346263 5.39181344 3.81321825 10.70043106 5.17651367 16.32446289 C5.37202316 17.11417984 5.56753265 17.90389679 5.76896667 18.71754456 C6.40707059 21.30135678 7.03790297 23.8868731 7.66796875 26.47265625 C8.11188857 28.28296163 8.55600909 30.0932178 9.00032043 31.90342712 C9.92736652 35.68585274 10.85053979 39.46919883 11.77124023 43.25317383 C12.94932796 48.09273419 14.13927437 52.9292908 15.33240795 57.76516056 C16.25165298 61.49821472 17.16346345 65.23305536 18.07317543 68.96844292 C18.50879655 70.75237582 18.94696745 72.53568817 19.38777733 74.31834602 C20.00347145 76.81206423 20.60881092 79.30808408 21.21166992 81.80493164 C21.39397156 82.53395691 21.57627319 83.26298218 21.76409912 84.01409912 C22.83097704 88.49135575 23.17063183 92.43873736 23 97 C19.36576791 99.32590854 16.22911669 99.16265833 12 99 C14.63904371 97.58622659 17.07120629 96.62759865 20 96 C20.45589182 88.66103566 18.75656847 82.35763294 16.8125 75.3125 C16.15858932 72.86760605 15.50625744 70.42228932 14.85546875 67.9765625 C14.374729 66.1807373 14.374729 66.1807373 13.88427734 64.34863281 C12.72978051 59.97671713 11.65790958 55.58950951 10.625 51.1875 C10.4408252 50.40455566 10.25665039 49.62161133 10.06689453 48.81494141 C9.64528061 47.01872248 9.22444768 45.22232014 8.80419922 43.42578125 C7.77284935 39.03236856 6.73235215 34.64114754 5.69140625 30.25 C5.48650574 29.3856282 5.28160522 28.52125641 5.07049561 27.63069153 C4.65229886 25.86663436 4.23408588 24.10258103 3.81585693 22.33853149 C2.80742121 18.08395147 1.80016437 13.82909249 0.79296875 9.57421875 C0.52148766 8.42741638 0.52148766 8.42741638 0.24452209 7.25744629 C-0.1703344 5.50496793 -0.58516982 3.75248459 -1 2 C-5.01993759 2.5625028 -8.98150712 3.14957857 -12.9375 4.0625 C-14.29166667 4.375 -15.64583333 4.6875 -17 5 C-16.3767065 12.34101236 -14.85960228 19.23830604 -13.0625 26.375 C-11.10224346 34.21602615 -9.34002662 42.02728797 -8 50 C-12.13521204 46.29325571 -14.99110829 41.82814657 -18.0625 37.25 C-19.21332336 35.55063339 -20.36436918 33.85141742 -21.515625 32.15234375 C-22.09376953 31.29624512 -22.67191406 30.44014648 -23.26757812 29.55810547 C-25.92865918 25.62873578 -28.61994638 21.72034013 -31.3125 17.8125 C-32.22532152 16.48571912 -33.13808818 15.1589005 -34.05078125 13.83203125 C-34.69402344 12.89746094 -35.33726563 11.96289062 -36 11 C-42.84443082 11.65372295 -42.84443082 11.65372295 -49.5625 13.0625 C-51.2640625 13.5265625 -51.2640625 13.5265625 -53 14 C-51.71613917 21.40108007 -50.19579749 28.71563542 -48.48828125 36.03125 C-48 39 -48 39 -49 42 C-51.03670115 36.29723678 -52.72715381 30.54500962 -54.25 24.6875 C-54.43723633 23.99398437 -54.62447266 23.30046875 -54.81738281 22.5859375 C-56.47714838 16.04842876 -56.47714838 16.04842876 -55 13 C-51.63388316 10.7559221 -48.50526744 9.92769477 -44.625 9.0625 C-43.965 8.88654297 -43.305 8.71058594 -42.625 8.52929688 C-40.6640625 8.09765625 -40.6640625 8.09765625 -37 8 C-33.44072131 10.740996 -31.10038028 14.05289584 -28.6875 17.8125 C-28.17574219 18.60269531 -27.66398437 19.39289063 -27.13671875 20.20703125 C-26.76160156 20.79871094 -26.38648437 21.39039062 -26 22 C-26.02320312 21.30132812 -26.04640625 20.60265625 -26.0703125 19.8828125 C-26.08835937 18.97273438 -26.10640625 18.06265625 -26.125 17.125 C-26.14820312 16.22007813 -26.17140625 15.31515625 -26.1953125 14.3828125 C-26 12 -26 12 -24 10 C-22.68 10 -21.36 10 -20 10 C-20.1546875 8.8553125 -20.1546875 8.8553125 -20.3125 7.6875 C-20 5 -20 5 -18 3.3125 C-11.98989134 0.68307746 -6.53732642 -0.2723886 0 0 Z " fill="#600C9C" transform="translate(128,51)"/>
<path d="M0 0 C1.11785889 -0.00315216 2.23571777 -0.00630432 3.38745117 -0.009552 C5.21240112 -0.00651566 5.21240112 -0.00651566 7.07421875 -0.00341797 C8.31341064 -0.00437469 9.55260254 -0.00533142 10.8293457 -0.00631714 C13.45560156 -0.00699921 16.08176508 -0.00564085 18.70800781 -0.00097656 C22.08100589 0.00472073 25.4539244 0.00144151 28.82691956 -0.00454903 C32.03435552 -0.00902317 35.24178175 -0.00589429 38.44921875 -0.00341797 C39.66585205 -0.0054422 40.88248535 -0.00746643 42.13598633 -0.009552 C43.81277466 -0.00482376 43.81277466 -0.00482376 45.5234375 0 C46.51303467 0.00079559 47.50263184 0.00159119 48.5222168 0.00241089 C50.76171875 0.12939453 50.76171875 0.12939453 51.76171875 1.12939453 C51.84823486 2.54509576 51.86876779 3.96498954 51.859375 5.38330078 C51.85615234 6.23730469 51.85292969 7.09130859 51.84960938 7.97119141 C51.83704102 9.31793945 51.83704102 9.31793945 51.82421875 10.69189453 C51.81970703 11.59359375 51.81519531 12.49529297 51.81054688 13.42431641 C51.798721 15.65940767 51.78224095 17.8943689 51.76171875 20.12939453 C50.77171875 20.45939453 49.78171875 20.78939453 48.76171875 21.12939453 C48.80296875 22.40814453 48.84421875 23.68689453 48.88671875 25.00439453 C48.95703125 27.18408203 48.95703125 27.18408203 48.76171875 29.12939453 C48.10171875 29.78939453 47.44171875 30.44939453 46.76171875 31.12939453 C42.47171875 31.12939453 38.18171875 31.12939453 33.76171875 31.12939453 C33.76171875 53.89939453 33.76171875 76.66939453 33.76171875 100.12939453 C29.81965539 101.44341565 26.2156617 101.02363169 22.13671875 100.75439453 C21.3478125 100.71056641 20.55890625 100.66673828 19.74609375 100.62158203 C13.891784 100.25945978 13.891784 100.25945978 12.76171875 99.12939453 C12.66673229 96.69543434 12.63613458 94.28996501 12.64819336 91.85571289 C12.64804733 91.09478836 12.64790131 90.33386383 12.64775085 89.54988098 C12.64845013 87.02297155 12.6562432 84.49613491 12.6640625 81.96923828 C12.66592663 80.22188863 12.66735055 78.47453847 12.66835022 76.72718811 C12.67217582 72.11907519 12.68200646 67.51099358 12.6930542 62.90289307 C12.70326741 58.20430932 12.70784765 53.50572054 12.71289062 48.80712891 C12.7236287 39.58120366 12.74070562 30.35530169 12.76171875 21.12939453 C11.54613281 21.14099609 10.33054688 21.15259766 9.078125 21.16455078 C7.49349111 21.17392731 5.90885557 21.18302766 4.32421875 21.19189453 C3.52177734 21.20027344 2.71933594 21.20865234 1.89257812 21.21728516 C-0.15123346 21.22590883 -2.19512027 21.18167603 -4.23828125 21.12939453 C-6.50253883 18.86513695 -5.71320658 13.68826941 -5.86328125 10.62939453 C-5.91484375 9.73607422 -5.96640625 8.84275391 -6.01953125 7.92236328 C-6.06335938 7.07287109 -6.1071875 6.22337891 -6.15234375 5.34814453 C-6.19311035 4.56375 -6.23387695 3.77935547 -6.27587891 2.97119141 C-6.19549432 -0.96660945 -3.23154341 0.00259802 0 0 Z M-4.23828125 1.12939453 C-4.23828125 7.06939453 -4.23828125 13.00939453 -4.23828125 19.12939453 C1.70171875 19.12939453 7.64171875 19.12939453 13.76171875 19.12939453 C13.75648193 21.51730225 13.75124512 23.90520996 13.74584961 26.36547852 C13.72931358 34.23649624 13.71824747 42.10751472 13.70990658 49.97854519 C13.70467782 54.75287733 13.69758031 59.52719174 13.6862793 64.30151367 C13.67545015 68.90505715 13.66944186 73.50858352 13.66684151 78.11213875 C13.66498731 79.87249076 13.66136679 81.63284179 13.65598869 83.39318657 C13.64877789 85.8501173 13.64772782 88.30697648 13.64819336 90.76391602 C13.64459808 91.49902908 13.64100281 92.23414215 13.63729858 92.99153137 C13.34771207 96.3452256 13.34771207 96.3452256 14.76171875 99.12939453 C20.37171875 99.12939453 25.98171875 99.12939453 31.76171875 99.12939453 C31.76171875 72.72939453 31.76171875 46.32939453 31.76171875 19.12939453 C37.70171875 19.12939453 43.64171875 19.12939453 49.76171875 19.12939453 C49.76171875 13.18939453 49.76171875 7.24939453 49.76171875 1.12939453 C31.94171875 1.12939453 14.12171875 1.12939453 -4.23828125 1.12939453 Z " fill="#9026E1" transform="translate(226.23828125,37.87060546875)"/>
<path d="M0 0 C4.54805635 -0.17835515 7.8794254 0.00214565 12 2 C12 4.31 12 6.62 12 9 C12.71285156 9.10957031 13.42570312 9.21914062 14.16015625 9.33203125 C19.87594422 10.27825187 24.79195618 11.45384524 30 14 C29.74445946 15.46109063 29.46999628 16.91888096 29.1875 18.375 C29.03667969 19.18710938 28.88585937 19.99921875 28.73046875 20.8359375 C28 23 28 23 25 25 C17.26033659 24.78107441 10.62137575 21.76312461 4 18 C4.33 15.69 4.66 13.38 5 11 C2.69 10.67 0.38 10.34 -2 10 C-1.34 6.7 -0.68 3.4 0 0 Z " fill="#4A027B" transform="translate(397,76)"/>
<path d="M0 0 C2.11346263 5.39181344 3.81321825 10.70043106 5.17651367 16.32446289 C5.37202316 17.11417984 5.56753265 17.90389679 5.76896667 18.71754456 C6.40707059 21.30135678 7.03790297 23.8868731 7.66796875 26.47265625 C8.11188857 28.28296163 8.55600909 30.0932178 9.00032043 31.90342712 C9.92736652 35.68585274 10.85053979 39.46919883 11.77124023 43.25317383 C12.94932796 48.09273419 14.13927437 52.9292908 15.33240795 57.76516056 C16.25165298 61.49821472 17.16346345 65.23305536 18.07317543 68.96844292 C18.50879655 70.75237582 18.94696745 72.53568817 19.38777733 74.31834602 C20.00347145 76.81206423 20.60881092 79.30808408 21.21166992 81.80493164 C21.39397156 82.53395691 21.57627319 83.26298218 21.76409912 84.01409912 C22.83097704 88.49135575 23.17063183 92.43873736 23 97 C19.36576791 99.32590854 16.22911669 99.16265833 12 99 C14.63904371 97.58622659 17.07120629 96.62759865 20 96 C20.45589182 88.66103566 18.75656847 82.35763294 16.8125 75.3125 C16.15858932 72.86760605 15.50625744 70.42228932 14.85546875 67.9765625 C14.53497559 66.7793457 14.21448242 65.58212891 13.88427734 64.34863281 C12.72978051 59.97671713 11.65790958 55.58950951 10.625 51.1875 C10.4408252 50.40455566 10.25665039 49.62161133 10.06689453 48.81494141 C9.64528061 47.01872248 9.22444768 45.22232014 8.80419922 43.42578125 C7.77284935 39.03236856 6.73235215 34.64114754 5.69140625 30.25 C5.48650574 29.3856282 5.28160522 28.52125641 5.07049561 27.63069153 C4.65229886 25.86663436 4.23408588 24.10258103 3.81585693 22.33853149 C2.80742121 18.08395147 1.80016437 13.82909249 0.79296875 9.57421875 C0.52148766 8.42741638 0.52148766 8.42741638 0.24452209 7.25744629 C-0.1703344 5.50496793 -0.58516982 3.75248459 -1 2 C-5.01993759 2.5625028 -8.98150712 3.14957857 -12.9375 4.0625 C-14.09572266 4.32740234 -14.09572266 4.32740234 -15.27734375 4.59765625 C-15.84582031 4.73042969 -16.41429688 4.86320312 -17 5 C-16.41173824 11.82383639 -15.10596096 18.29691667 -13.5234375 24.9609375 C-13 28 -13 28 -14 31 C-20.64621436 12.01081613 -20.64621436 12.01081613 -20 5 C-14.46260051 0.32781918 -6.96246399 -0.29010267 0 0 Z " fill="#8A1BE4" transform="translate(128,51)"/>
<path d="M0 0 C1.60495567 0.11442461 3.20898119 0.24194694 4.8125 0.375 C5.70582031 0.44460937 6.59914063 0.51421875 7.51953125 0.5859375 C10 1 10 1 13 3 C13.1875 5.625 13.1875 5.625 13 8 C12.78601563 7.36578125 12.57203125 6.7315625 12.3515625 6.078125 C11.14561047 3.74386889 11.14561047 3.74386889 8.3984375 3.171875 C6.90183594 2.96304688 6.90183594 2.96304688 5.375 2.75 C3.87066406 2.52570313 3.87066406 2.52570313 2.3359375 2.296875 C1.56507813 2.19890625 0.79421875 2.1009375 0 2 C-0.06058594 2.56847656 -0.12117188 3.13695313 -0.18359375 3.72265625 C-0.26738281 4.49480469 -0.35117187 5.26695313 -0.4375 6.0625 C-0.51871094 6.81660156 -0.59992188 7.57070312 -0.68359375 8.34765625 C-1.06840205 11.57339496 -1.53178087 14.78541995 -2 18 C-0.92621094 18.3403125 0.14757812 18.680625 1.25390625 19.03125 C16.47374476 24.11702526 16.47374476 24.11702526 21 32 C25.47740996 41.49519698 22.97693391 51.34808814 20.3125 61 C20.06886719 61.90814453 19.82523437 62.81628906 19.57421875 63.75195312 C17.97827721 69.16445184 16.39200394 72.40858281 12 76 C11.34 75.67 10.68 75.34 10 75 C10.8971875 74.01 10.8971875 74.01 11.8125 73 C14.35874609 69.50800537 15.73454097 66.08212589 17 62 C17.28101563 61.1234375 17.56203125 60.246875 17.8515625 59.34375 C20.26875305 50.94005948 22.3740162 40.76546792 18.93359375 32.41015625 C14.0945262 25.32955877 6.65223805 23.02873175 -1.21484375 20.61328125 C-3 20 -3 20 -4 19 C-3.94673811 12.28900151 -2.39102502 6.22568779 0 0 Z " fill="#881CE0" transform="translate(397,74)"/>
<path d="M0 0 C2.29160319 -0.02692484 4.58329546 -0.04636124 6.875 -0.0625 C8.15117187 -0.07410156 9.42734375 -0.08570313 10.7421875 -0.09765625 C14 0 14 0 16 1 C16.1953125 7.0546875 16.1953125 7.0546875 16 9 C14 11 14 11 10.9609375 11.1953125 C9.77757812 11.17210938 8.59421875 11.14890625 7.375 11.125 C6.18648438 11.10695313 4.99796875 11.08890625 3.7734375 11.0703125 C2.85820312 11.04710938 1.94296875 11.02390625 1 11 C-0.20272819 8.59454362 -0.10071472 7.05003047 -0.0625 4.375 C-0.05347656 3.55773438 -0.04445313 2.74046875 -0.03515625 1.8984375 C-0.02355469 1.27195313 -0.01195312 0.64546875 0 0 Z " fill="#49007B" transform="translate(259,58)"/>
<path d="M0 0 C2.10209857 3.15314785 2.2434761 3.86103081 2.1953125 7.44921875 C2.18564453 8.72055664 2.18564453 8.72055664 2.17578125 10.01757812 C2.15902344 10.89865234 2.14226562 11.77972656 2.125 12.6875 C2.11597656 13.58017578 2.10695313 14.47285156 2.09765625 15.39257812 C2.07409748 17.59532314 2.04120329 19.79752588 2 22 C-0.64 21.67 -3.28 21.34 -6 21 C-4.29977612 13.87352969 -2.42080258 6.9165788 0 0 Z " fill="#4C0084" transform="translate(326,71)"/>
<path d="M0 0 C1.98 0 3.96 0 6 0 C6 0.33 6 0.66 6 1 C4.35 1 2.7 1 1 1 C0.690625 2.8871875 0.690625 2.8871875 0.375 4.8125 C-1.31534406 13.40093932 -4.28069067 21.69369954 -7 30 C-8.42575449 30.0135948 -9.85154694 30.02324071 -11.27734375 30.03125 C-12.07132568 30.03705078 -12.86530762 30.04285156 -13.68334961 30.04882812 C-16.52255778 29.98898603 -19.22115122 29.57002026 -22 29 C-22 28.67 -22 28.34 -22 28 C-18.04 28 -14.08 28 -10 28 C-6.15558089 18.83253904 -3.08579092 9.44252022 0 0 Z " fill="#8B1FDF" transform="translate(314,110)"/>
<path d="M0 0 C0.33 0 0.66 0 1 0 C2.95552392 8.06653615 1.54616927 14.82627207 -0.6875 22.625 C-0.93177734 23.553125 -1.17605469 24.48125 -1.42773438 25.4375 C-2.99830879 30.98818832 -4.48037345 34.35042081 -9 38 C-9.66 37.67 -10.32 37.34 -11 37 C-10.401875 36.34 -9.80375 35.68 -9.1875 35 C-2.09447934 25.27242881 -0.6013878 11.69595585 0 0 Z " fill="#932CDD" transform="translate(418,112)"/>
<path d="M0 0 C2.10209857 3.15314785 2.2434761 3.86103081 2.1953125 7.44921875 C2.18564453 8.72055664 2.18564453 8.72055664 2.17578125 10.01757812 C2.15902344 10.89865234 2.14226562 11.77972656 2.125 12.6875 C2.11597656 13.58017578 2.10695313 14.47285156 2.09765625 15.39257812 C2.07409748 17.59532314 2.04120329 19.79752588 2 22 C1.34 21.67 0.68 21.34 0 21 C0 16.38 0 11.76 0 7 C-1.98 13.93 -1.98 13.93 -4 21 C-4.66 21 -5.32 21 -6 21 C-4.29977612 13.87352969 -2.42080258 6.9165788 0 0 Z " fill="#8C29D5" transform="translate(326,71)"/>
<path d="M0 0 C2.05710856 3.08566284 2.78346093 5.36985312 3.6875 8.9375 C3.95949219 9.97777344 4.23148438 11.01804688 4.51171875 12.08984375 C4.98054544 14.88405082 4.99990008 16.38813979 4 19 C3 20 3 20 -0.5625 20.0625 C-1.696875 20.041875 -2.83125 20.02125 -4 20 C-1 18 -1 18 2 17 C1.855625 16.27554688 1.71125 15.55109375 1.5625 14.8046875 C0.60449608 9.81508377 -0.27607149 5.10732262 0 0 Z " fill="#8C1FE4" transform="translate(111,138)"/>
<path d="M0 0 C2.60608273 2.5162178 4.89381685 5.05134359 7 8 C6.67 8.66 6.34 9.32 6 10 C5.34 9.34 4.68 8.68 4 8 C4.144375 8.59167969 4.28875 9.18335937 4.4375 9.79296875 C5.40822694 13.92529941 6.27593702 17.7229762 6 22 C3.9282933 18.35118324 2.92431922 14.46766307 1.875 10.4375 C1.69324219 9.76525391 1.51148437 9.09300781 1.32421875 8.40039062 C0.56143029 5.51269145 0 3.0002579 0 0 Z " fill="#8220CA" transform="translate(104,112)"/>
<path d="M0 0 C1.8133922 3.20010388 2.52213974 6.13283843 3.125 9.75 C3.29257813 10.73484375 3.46015625 11.7196875 3.6328125 12.734375 C3.81457031 13.85585937 3.81457031 13.85585937 4 15 C1.33264727 12.51047079 -0.55746343 10.36591866 -2 7 C-1.34 7 -0.68 7 0 7 C0 4.69 0 2.38 0 0 Z " fill="#8227C1" transform="translate(116,86)"/>
<path d="M0 0 C0.33 0 0.66 0 1 0 C1 1.98 1 3.96 1 6 C-4.12583611 6.10251672 -8.94997778 6.03590199 -14 5 C-14 4.67 -14 4.34 -14 4 C-10.04 4 -6.08 4 -2 4 C-1.34 2.68 -0.68 1.36 0 0 Z " fill="#8722D5" transform="translate(306,134)"/>
<path d="M0 0 C0.33 0.99 0.66 1.98 1 3 C-0.58133449 6.16266898 -2.38114512 8.63055987 -5 11 C-5.66 10.67 -6.32 10.34 -7 10 C-6.401875 9.278125 -5.80375 8.55625 -5.1875 7.8125 C-3.22577804 5.29028605 -1.58276017 2.7698303 0 0 Z " fill="#7C11D7" transform="translate(414,139)"/>
</svg>
